<svg width="20" height="20" viewBox="0 0 20 20" fill="none" xmlns="http://www.w3.org/2000/svg">
<path d="M9.99997 7.08351C9.8903 7.08287 9.78158 7.10389 9.68005 7.14536C9.57852 7.18683 9.48617 7.24794 9.4083 7.32517L6.07497 10.6585C5.99727 10.7362 5.93564 10.8284 5.89359 10.93C5.85154 11.0315 5.8299 11.1403 5.8299 11.2502C5.8299 11.3601 5.85154 11.4689 5.89359 11.5704C5.93564 11.6719 5.99727 11.7641 6.07497 11.8418C6.15267 11.9195 6.24491 11.9812 6.34643 12.0232C6.44795 12.0653 6.55676 12.0869 6.66664 12.0869C6.77652 12.0869 6.88533 12.0653 6.98685 12.0232C7.08836 11.9812 7.18061 11.9195 7.2583 11.8418L9.99997 9.0835L12.75 11.7335C12.8266 11.8187 12.9201 11.8873 13.0244 11.9347C13.1287 11.9822 13.2418 12.0077 13.3564 12.0095C13.471 12.0113 13.5848 11.9895 13.6906 11.9453C13.7964 11.9011 13.8919 11.8356 13.9712 11.7529C14.0506 11.6701 14.112 11.5718 14.1516 11.4643C14.1912 11.3567 14.2082 11.2421 14.2015 11.1276C14.1948 11.0132 14.1646 10.9014 14.1127 10.7991C14.0608 10.6969 13.9884 10.6065 13.9 10.5335L10.5666 7.31684C10.4142 7.16991 10.2116 7.08648 9.99997 7.08351Z" fill="white"/>
</svg>
